<mxfile host="Electron" agent="Mozilla/5.0 (Windows NT 10.0; Win64; x64) AppleWebKit/537.36 (KHTML, like Gecko) draw.io/24.7.8 Chrome/128.0.6613.36 Electron/32.0.1 Safari/537.36" version="24.7.8" pages="2">
  <diagram name="Light" id="AVefi_4B2r27eV40Z59U">
    <mxGraphModel dx="1050" dy="629" grid="1" gridSize="10" guides="1" tooltips="1" connect="1" arrows="1" fold="1" page="0" pageScale="1" pageWidth="850" pageHeight="1100" background="#ffffff" math="0" shadow="0">
      <root>
        <mxCell id="0" />
        <mxCell id="1" parent="0" />
        <mxCell id="lLjQft1QgtvO7yPWeCVP-5" value="Project&amp;nbsp;&lt;span style=&quot;background-color: initial;&quot;&gt;Specific&lt;/span&gt;" style="text;html=1;align=center;verticalAlign=middle;whiteSpace=wrap;rounded=0;" parent="1" vertex="1">
          <mxGeometry x="210" y="130" width="250" height="30" as="geometry" />
        </mxCell>
        <mxCell id="lLjQft1QgtvO7yPWeCVP-6" value="Project Independent" style="text;html=1;align=center;verticalAlign=middle;whiteSpace=wrap;rounded=0;" parent="1" vertex="1">
          <mxGeometry x="460" y="130" width="250" height="30" as="geometry" />
        </mxCell>
        <mxCell id="lLjQft1QgtvO7yPWeCVP-7" value="Platform&lt;div&gt;Specific&lt;/div&gt;" style="text;html=1;align=center;verticalAlign=middle;whiteSpace=wrap;rounded=0;" parent="1" vertex="1">
          <mxGeometry x="140" y="330" width="70" height="30" as="geometry" />
        </mxCell>
        <mxCell id="lLjQft1QgtvO7yPWeCVP-8" value="Platform&lt;div&gt;Independent&lt;/div&gt;" style="text;html=1;align=center;verticalAlign=middle;whiteSpace=wrap;rounded=0;" parent="1" vertex="1">
          <mxGeometry x="135" y="210" width="80" height="30" as="geometry" />
        </mxCell>
        <mxCell id="lLjQft1QgtvO7yPWeCVP-13" value="" style="rounded=0;whiteSpace=wrap;html=1;strokeColor=none;fillColor=#dae8fc;opacity=60;" parent="1" vertex="1">
          <mxGeometry x="210" y="280" width="250" height="120" as="geometry" />
        </mxCell>
        <mxCell id="lLjQft1QgtvO7yPWeCVP-14" value="Bindings" style="text;html=1;align=center;verticalAlign=middle;whiteSpace=wrap;rounded=0;fontStyle=1;fontSize=14;" parent="1" vertex="1">
          <mxGeometry x="220" y="280" width="230" height="40" as="geometry" />
        </mxCell>
        <mxCell id="lLjQft1QgtvO7yPWeCVP-15" value="&lt;span style=&quot;font-weight: normal; font-size: 10px;&quot;&gt;Example Paths:&lt;br&gt;&lt;br&gt;&lt;/span&gt;&lt;span style=&quot;font-weight: 400;&quot;&gt;projects/Demo/Blink/platforms/stm32f767/bindings.cc&lt;/span&gt;&lt;div style=&quot;text-align: left;&quot;&gt;&lt;span style=&quot;font-weight: 400;&quot;&gt;projects/Demo/Blink/platforms/raspi/bindings.cc&lt;/span&gt;&lt;span style=&quot;font-weight: normal; font-size: 10px;&quot;&gt;&lt;br&gt;&lt;/span&gt;&lt;/div&gt;" style="text;html=1;align=center;verticalAlign=top;whiteSpace=wrap;rounded=0;fontStyle=3;fontFamily=Helvetica;fontSize=10;" parent="1" vertex="1">
          <mxGeometry x="210" y="330" width="250" height="70" as="geometry" />
        </mxCell>
        <mxCell id="lLjQft1QgtvO7yPWeCVP-17" value="" style="rounded=0;whiteSpace=wrap;html=1;strokeColor=none;fillColor=#f8cecc;opacity=60;" parent="1" vertex="1">
          <mxGeometry x="460" y="280" width="250" height="120" as="geometry" />
        </mxCell>
        <mxCell id="lLjQft1QgtvO7yPWeCVP-18" value="MCAL&lt;br&gt;&lt;font style=&quot;font-size: 12px;&quot;&gt;(MicroContoller Abstraction Layer)&lt;/font&gt;" style="text;html=1;align=center;verticalAlign=middle;whiteSpace=wrap;rounded=0;fontStyle=1;fontSize=14;" parent="1" vertex="1">
          <mxGeometry x="470" y="280" width="230" height="40" as="geometry" />
        </mxCell>
        <mxCell id="lLjQft1QgtvO7yPWeCVP-19" value="&lt;span style=&quot;font-weight: normal; font-size: 10px;&quot;&gt;Example Paths:&lt;br&gt;&lt;br&gt;mcal/stm32f767/periph/adc.hpp&lt;br&gt;&lt;div style=&quot;text-align: left;&quot;&gt;&lt;span style=&quot;background-color: initial;&quot;&gt;mcal/raspi/periph/adc.hpp&lt;/span&gt;&lt;/div&gt;&lt;/span&gt;" style="text;html=1;align=center;verticalAlign=top;whiteSpace=wrap;rounded=0;fontStyle=3;fontFamily=Helvetica;fontSize=10;" parent="1" vertex="1">
          <mxGeometry x="460" y="330" width="250" height="70" as="geometry" />
        </mxCell>
        <mxCell id="lLjQft1QgtvO7yPWeCVP-1" value="" style="rounded=0;whiteSpace=wrap;html=1;strokeColor=none;fillColor=#d5e8d4;opacity=60;" parent="1" vertex="1">
          <mxGeometry x="210" y="160" width="250" height="120" as="geometry" />
        </mxCell>
        <mxCell id="lLjQft1QgtvO7yPWeCVP-9" value="Application Code" style="text;html=1;align=center;verticalAlign=middle;whiteSpace=wrap;rounded=0;fontStyle=1;fontSize=14;" parent="1" vertex="1">
          <mxGeometry x="220" y="160" width="230" height="40" as="geometry" />
        </mxCell>
        <mxCell id="lLjQft1QgtvO7yPWeCVP-10" value="&lt;span style=&quot;font-weight: normal; font-size: 10px;&quot;&gt;Example Paths:&lt;br&gt;&lt;br&gt;&lt;div style=&quot;text-align: left;&quot;&gt;&lt;span style=&quot;background-color: initial;&quot;&gt;projects/Demo/Blink/main.cc&lt;/span&gt;&lt;/div&gt;projects/Demo/Blink/bindings.hpp&lt;/span&gt;" style="text;html=1;align=center;verticalAlign=top;whiteSpace=wrap;rounded=0;fontStyle=3;fontFamily=Helvetica;labelBackgroundColor=none;textShadow=0;labelBorderColor=none;fontSize=10;" parent="1" vertex="1">
          <mxGeometry x="210" y="210" width="250" height="70" as="geometry" />
        </mxCell>
        <mxCell id="lLjQft1QgtvO7yPWeCVP-21" value="" style="rounded=0;whiteSpace=wrap;html=1;strokeColor=none;fillColor=#fff2cc;opacity=60;" parent="1" vertex="1">
          <mxGeometry x="460" y="160" width="250" height="120" as="geometry" />
        </mxCell>
        <mxCell id="lLjQft1QgtvO7yPWeCVP-22" value="Peripheral Interfaces&lt;div style=&quot;font-size: 14px;&quot;&gt;&amp;amp; Shared Code&amp;nbsp;&lt;br style=&quot;font-size: 14px;&quot;&gt;&lt;/div&gt;" style="text;html=1;align=center;verticalAlign=middle;whiteSpace=wrap;rounded=0;fontStyle=1;fontSize=14;" parent="1" vertex="1">
          <mxGeometry x="470" y="160" width="230" height="40" as="geometry" />
        </mxCell>
        <mxCell id="lLjQft1QgtvO7yPWeCVP-23" value="&lt;span style=&quot;font-weight: 400; font-size: 10px;&quot;&gt;Example Paths:&lt;br&gt;&lt;br&gt;&lt;div style=&quot;text-align: left;&quot;&gt;&lt;span style=&quot;background-color: initial;&quot;&gt;shared/periph/adc.hpp&lt;/span&gt;&lt;/div&gt;&lt;/span&gt;&lt;span style=&quot;font-weight: normal; font-size: 10px;&quot;&gt;shared/util/mappers/lookup_table.hpp&lt;br style=&quot;font-size: 10px;&quot;&gt;&lt;/span&gt;" style="text;html=1;align=center;verticalAlign=top;whiteSpace=wrap;rounded=0;fontStyle=3;fontFamily=Helvetica;fontSize=10;" parent="1" vertex="1">
          <mxGeometry x="460" y="210" width="250" height="70" as="geometry" />
        </mxCell>
        <mxCell id="lLjQft1QgtvO7yPWeCVP-26" value="" style="endArrow=block;html=1;rounded=0;startArrow=block;startFill=1;endFill=1;" parent="1" edge="1">
          <mxGeometry width="50" height="50" relative="1" as="geometry">
            <mxPoint x="160" y="280" as="sourcePoint" />
            <mxPoint x="720" y="280" as="targetPoint" />
          </mxGeometry>
        </mxCell>
        <mxCell id="lLjQft1QgtvO7yPWeCVP-27" value="" style="endArrow=block;html=1;rounded=0;startArrow=block;startFill=1;endFill=1;" parent="1" edge="1">
          <mxGeometry width="50" height="50" relative="1" as="geometry">
            <mxPoint x="460" y="420" as="sourcePoint" />
            <mxPoint x="460" y="130" as="targetPoint" />
          </mxGeometry>
        </mxCell>
      </root>
    </mxGraphModel>
  </diagram>
  <diagram name="Dark" id="2UDOZF7GKoJFMiVs2ryz">
    <mxGraphModel dx="750" dy="449" grid="1" gridSize="10" guides="1" tooltips="1" connect="1" arrows="1" fold="1" page="0" pageScale="1" pageWidth="850" pageHeight="1100" background="#000000" math="0" shadow="0">
      <root>
        <mxCell id="tRIXiKq6z88w_5JdcBh1-0" />
        <mxCell id="tRIXiKq6z88w_5JdcBh1-1" parent="tRIXiKq6z88w_5JdcBh1-0" />
        <mxCell id="tRIXiKq6z88w_5JdcBh1-2" value="Project&amp;nbsp;&lt;span style=&quot;background-color: initial;&quot;&gt;Specific&lt;/span&gt;" style="text;html=1;align=center;verticalAlign=middle;whiteSpace=wrap;rounded=0;fontColor=#FFFFFF;" parent="tRIXiKq6z88w_5JdcBh1-1" vertex="1">
          <mxGeometry x="210" y="130" width="250" height="30" as="geometry" />
        </mxCell>
        <mxCell id="tRIXiKq6z88w_5JdcBh1-3" value="Project Independent" style="text;html=1;align=center;verticalAlign=middle;whiteSpace=wrap;rounded=0;fontColor=#FFFFFF;" parent="tRIXiKq6z88w_5JdcBh1-1" vertex="1">
          <mxGeometry x="460" y="130" width="250" height="30" as="geometry" />
        </mxCell>
        <mxCell id="tRIXiKq6z88w_5JdcBh1-4" value="Platform&lt;div&gt;Specific&lt;/div&gt;" style="text;html=1;align=center;verticalAlign=middle;whiteSpace=wrap;rounded=0;fontColor=#FFFFFF;" parent="tRIXiKq6z88w_5JdcBh1-1" vertex="1">
          <mxGeometry x="140" y="330" width="70" height="30" as="geometry" />
        </mxCell>
        <mxCell id="tRIXiKq6z88w_5JdcBh1-5" value="Platform&lt;div&gt;Independent&lt;/div&gt;" style="text;html=1;align=center;verticalAlign=middle;whiteSpace=wrap;rounded=0;fontColor=#FFFFFF;" parent="tRIXiKq6z88w_5JdcBh1-1" vertex="1">
          <mxGeometry x="135" y="210" width="80" height="30" as="geometry" />
        </mxCell>
        <mxCell id="tRIXiKq6z88w_5JdcBh1-6" value="" style="rounded=0;whiteSpace=wrap;html=1;strokeColor=none;fillColor=#dae8fc;opacity=80;" parent="tRIXiKq6z88w_5JdcBh1-1" vertex="1">
          <mxGeometry x="210" y="280" width="250" height="120" as="geometry" />
        </mxCell>
        <mxCell id="tRIXiKq6z88w_5JdcBh1-7" value="Bindings" style="text;html=1;align=center;verticalAlign=middle;whiteSpace=wrap;rounded=0;fontStyle=1;fontSize=14;" parent="tRIXiKq6z88w_5JdcBh1-1" vertex="1">
          <mxGeometry x="300" y="280" width="70" height="40" as="geometry" />
        </mxCell>
        <mxCell id="tRIXiKq6z88w_5JdcBh1-8" value="&lt;span style=&quot;font-weight: normal; font-size: 10px;&quot;&gt;Example Paths:&lt;br&gt;&lt;br&gt;&lt;/span&gt;&lt;span style=&quot;font-weight: 400;&quot;&gt;projects/Demo/Blink/platforms/stm32f767/bindings.cc&lt;/span&gt;&lt;div style=&quot;text-align: left;&quot;&gt;&lt;span style=&quot;font-weight: 400;&quot;&gt;projects/Demo/Blink/platforms/raspi/bindings.cc&lt;/span&gt;&lt;span style=&quot;font-weight: normal; font-size: 10px;&quot;&gt;&lt;br&gt;&lt;/span&gt;&lt;/div&gt;" style="text;html=1;align=center;verticalAlign=top;whiteSpace=wrap;rounded=0;fontStyle=3;fontFamily=Helvetica;fontSize=10;" parent="tRIXiKq6z88w_5JdcBh1-1" vertex="1">
          <mxGeometry x="210" y="330" width="250" height="70" as="geometry" />
        </mxCell>
        <mxCell id="tRIXiKq6z88w_5JdcBh1-9" value="" style="rounded=0;whiteSpace=wrap;html=1;strokeColor=none;fillColor=#f8cecc;opacity=80;" parent="tRIXiKq6z88w_5JdcBh1-1" vertex="1">
          <mxGeometry x="460" y="280" width="250" height="120" as="geometry" />
        </mxCell>
        <mxCell id="tRIXiKq6z88w_5JdcBh1-10" value="MCAL&lt;br&gt;&lt;font style=&quot;font-size: 12px;&quot;&gt;(MicroContoller Abstraction Layer)&lt;/font&gt;" style="text;html=1;align=center;verticalAlign=middle;whiteSpace=wrap;rounded=0;fontStyle=1;fontSize=14;" parent="tRIXiKq6z88w_5JdcBh1-1" vertex="1">
          <mxGeometry x="480" y="280" width="210" height="40" as="geometry" />
        </mxCell>
        <mxCell id="tRIXiKq6z88w_5JdcBh1-11" value="&lt;span style=&quot;font-weight: normal; font-size: 10px;&quot;&gt;Example Paths:&lt;br&gt;&lt;br&gt;mcal/stm32f767/periph/adc.hpp&lt;br&gt;&lt;div style=&quot;text-align: left;&quot;&gt;&lt;span style=&quot;background-color: initial;&quot;&gt;mcal/raspi/periph/adc.hpp&lt;/span&gt;&lt;/div&gt;&lt;/span&gt;" style="text;html=1;align=center;verticalAlign=top;whiteSpace=wrap;rounded=0;fontStyle=3;fontFamily=Helvetica;fontSize=10;" parent="tRIXiKq6z88w_5JdcBh1-1" vertex="1">
          <mxGeometry x="490" y="330" width="190" height="70" as="geometry" />
        </mxCell>
        <mxCell id="tRIXiKq6z88w_5JdcBh1-12" value="" style="rounded=0;whiteSpace=wrap;html=1;strokeColor=none;fillColor=#d5e8d4;opacity=80;" parent="tRIXiKq6z88w_5JdcBh1-1" vertex="1">
          <mxGeometry x="210" y="160" width="250" height="120" as="geometry" />
        </mxCell>
        <mxCell id="tRIXiKq6z88w_5JdcBh1-13" value="Application Code" style="text;html=1;align=center;verticalAlign=middle;whiteSpace=wrap;rounded=0;fontStyle=1;fontSize=14;" parent="tRIXiKq6z88w_5JdcBh1-1" vertex="1">
          <mxGeometry x="250" y="160" width="170" height="40" as="geometry" />
        </mxCell>
        <mxCell id="tRIXiKq6z88w_5JdcBh1-14" value="&lt;span style=&quot;font-weight: normal; font-size: 10px;&quot;&gt;Example Paths:&lt;br&gt;&lt;br&gt;&lt;div style=&quot;text-align: left;&quot;&gt;&lt;span style=&quot;background-color: initial;&quot;&gt;projects/Demo/Blink/main.cc&lt;/span&gt;&lt;/div&gt;projects/Demo/Blink/bindings.hpp&lt;/span&gt;" style="text;html=1;align=center;verticalAlign=top;whiteSpace=wrap;rounded=0;fontStyle=3;fontFamily=Helvetica;labelBackgroundColor=none;textShadow=0;labelBorderColor=none;fontSize=10;" parent="tRIXiKq6z88w_5JdcBh1-1" vertex="1">
          <mxGeometry x="240" y="210" width="190" height="75" as="geometry" />
        </mxCell>
        <mxCell id="tRIXiKq6z88w_5JdcBh1-15" value="" style="rounded=0;whiteSpace=wrap;html=1;strokeColor=none;fillColor=#fff2cc;opacity=80;" parent="tRIXiKq6z88w_5JdcBh1-1" vertex="1">
          <mxGeometry x="460" y="160" width="250" height="120" as="geometry" />
        </mxCell>
        <mxCell id="tRIXiKq6z88w_5JdcBh1-16" value="Peripheral Interfaces&lt;div style=&quot;font-size: 14px;&quot;&gt;&amp;amp; Shared Code&amp;nbsp;&lt;br style=&quot;font-size: 14px;&quot;&gt;&lt;/div&gt;" style="text;html=1;align=center;verticalAlign=middle;whiteSpace=wrap;rounded=0;fontStyle=1;fontSize=14;" parent="tRIXiKq6z88w_5JdcBh1-1" vertex="1">
          <mxGeometry x="510" y="160" width="150" height="40" as="geometry" />
        </mxCell>
        <mxCell id="tRIXiKq6z88w_5JdcBh1-17" value="&lt;span style=&quot;font-weight: 400; font-size: 10px;&quot;&gt;Example Paths:&lt;br&gt;&lt;br&gt;&lt;div style=&quot;text-align: left;&quot;&gt;&lt;span style=&quot;background-color: initial;&quot;&gt;shared/periph/adc.hpp&lt;/span&gt;&lt;/div&gt;&lt;/span&gt;&lt;span style=&quot;font-weight: normal; font-size: 10px;&quot;&gt;shared/util/mappers/lookup_table.hpp&lt;br style=&quot;font-size: 10px;&quot;&gt;&lt;/span&gt;" style="text;html=1;align=center;verticalAlign=top;whiteSpace=wrap;rounded=0;fontStyle=3;fontFamily=Helvetica;fontSize=10;" parent="tRIXiKq6z88w_5JdcBh1-1" vertex="1">
          <mxGeometry x="480" y="210" width="210" height="70" as="geometry" />
        </mxCell>
        <mxCell id="tRIXiKq6z88w_5JdcBh1-18" value="" style="endArrow=block;html=1;rounded=0;startArrow=block;startFill=1;endFill=1;strokeColor=#FFFFFF;" parent="tRIXiKq6z88w_5JdcBh1-1" edge="1">
          <mxGeometry width="50" height="50" relative="1" as="geometry">
            <mxPoint x="160" y="280" as="sourcePoint" />
            <mxPoint x="720" y="280" as="targetPoint" />
          </mxGeometry>
        </mxCell>
        <mxCell id="tRIXiKq6z88w_5JdcBh1-19" value="" style="endArrow=block;html=1;rounded=0;startArrow=block;startFill=1;endFill=1;strokeColor=#FFFFFF;" parent="tRIXiKq6z88w_5JdcBh1-1" edge="1">
          <mxGeometry width="50" height="50" relative="1" as="geometry">
            <mxPoint x="460" y="420" as="sourcePoint" />
            <mxPoint x="460" y="130" as="targetPoint" />
          </mxGeometry>
        </mxCell>
      </root>
    </mxGraphModel>
  </diagram>
</mxfile>
